<?xml version="1.0" encoding="UTF-8" standalone="no"?>
<svg
   xmlns:dc="http://purl.org/dc/elements/1.1/"
   xmlns:cc="http://creativecommons.org/ns#"
   xmlns:rdf="http://www.w3.org/1999/02/22-rdf-syntax-ns#"
   xmlns:svg="http://www.w3.org/2000/svg"
   xmlns="http://www.w3.org/2000/svg"
   xmlns:sodipodi="http://sodipodi.sourceforge.net/DTD/sodipodi-0.dtd"
   xmlns:inkscape="http://www.inkscape.org/namespaces/inkscape"
   version="1.1"
   viewBox="0 0 226 226"
   id="svg258"
   sodipodi:docname="config.svg"
   inkscape:version="1.0.2-2 (e86c870879, 2021-01-15)">
  <metadata
     id="metadata264">
    <rdf:RDF>
      <cc:Work
         rdf:about="">
        <dc:format>image/svg+xml</dc:format>
        <dc:type
           rdf:resource="http://purl.org/dc/dcmitype/StillImage" />
        <dc:title></dc:title>
      </cc:Work>
    </rdf:RDF>
  </metadata>
  <defs
     id="defs262" />
  <sodipodi:namedview
     pagecolor="#ffffff"
     bordercolor="#666666"
     borderopacity="1"
     objecttolerance="10"
     gridtolerance="10"
     guidetolerance="10"
     inkscape:pageopacity="0"
     inkscape:pageshadow="2"
     inkscape:window-width="1920"
     inkscape:window-height="986"
     id="namedview260"
     showgrid="false"
     inkscape:zoom="3.539823"
     inkscape:cx="113"
     inkscape:cy="80.802131"
     inkscape:window-x="-11"
     inkscape:window-y="-11"
     inkscape:window-maximized="1"
     inkscape:current-layer="svg258" />
  <g
     fill="none"
     fill-rule="nonzero"
     stroke="none"
     stroke-width="1"
     stroke-linecap="none"
     stroke-linejoin="none"
     stroke-miterlimit="10"
     stroke-dasharray="none"
     stroke-dashoffset="0"
     font-family="none"
     font-weight="none"
     font-size="none"
     text-anchor="none"
     style="mix-blend-mode:normal"
     id="g256"
     transform="matrix(1.3333506,0,0,1.3333506,-37.5725,-40.493619)">
    <path
       d="M 0,226 V 0 h 226 v 226 z"
       fill="none"
       stroke="none"
       stroke-linecap="butt"
       stroke-linejoin="miter"
       id="path138" />
    <g
       id="g254">
      <circle
         cx="50"
         cy="50"
         transform="scale(2.26)"
         r="35"
         fill="#95a5a6"
         stroke="none"
         stroke-linecap="butt"
         stroke-linejoin="miter"
         id="circle140" />
      <path
         d="m 163.93362,113 c 0,-1.5933 -0.0949,-3.16174 -0.2373,-4.71888 l 8.77784,-4.34146 -3.43972,-12.83454 -9.79032,0.63054 c -1.32662,-2.87472 -2.87924,-5.62288 -4.69628,-8.1812 l 5.42626,-8.14052 -9.39482,-9.39482 -8.14052,5.42626 c -2.56058,-1.8193 -5.29518,-3.40582 -8.17894,-4.73244 l 0.62828,-9.75416 -12.83454,-3.43972 -4.33468,8.76654 c -1.55714,-0.14238 -3.1301,-0.226 -4.7234,-0.226 v 13.6165 c 20.60894,0 37.31712,16.70592 37.31712,37.31712 0,20.60894 -16.05278,46.28028 -16.05278,46.28028 2.8815,-1.32662 5.6161,-2.91314 8.17894,-4.73018 l 8.14052,5.42626 9.39482,-9.39482 -5.42626,-8.14052 c 1.81478,-2.55606 3.36966,-5.30648 4.69628,-8.1812 l 9.79032,0.63054 3.43972,-12.83454 -8.77784,-4.34146 c 0.14238,-1.54584 0.2373,-3.11428 0.2373,-4.70758 z"
         fill="#e67e22"
         stroke="none"
         stroke-linecap="butt"
         stroke-linejoin="miter"
         id="path142" />
      <path
         d="m 62.06638,113 c 0,-1.5933 0.09492,-3.16174 0.2373,-4.71888 l -8.77784,-4.34146 3.43972,-12.83454 9.79032,0.63054 c 1.32662,-2.87472 2.87924,-5.62288 4.69628,-8.1812 l -5.42626,-8.14052 9.39482,-9.39482 8.14052,5.42626 c 2.56058,-1.8193 5.29518,-3.40582 8.17894,-4.73244 l -0.62828,-9.75416 12.83454,-3.43972 4.33468,8.76654 c 1.55714,-0.14238 3.1301,-0.226 4.7234,-0.226 v 13.6165 c -20.60894,0 -37.31712,16.70592 -37.31712,37.31712 0,20.60894 16.05278,46.28028 16.05278,46.28028 -2.8815,-1.32662 -5.6161,-2.91314 -8.17894,-4.73018 l -8.14052,5.42626 -9.39482,-9.39482 5.42626,-8.14052 c -1.81478,-2.55606 -3.36966,-5.30648 -4.69628,-8.1812 l -9.79032,0.63054 -3.43972,-12.83454 8.77784,-4.34146 C 62.1613,116.16174 62.06638,114.5933 62.06638,113 Z"
         fill="#3498db"
         stroke="none"
         stroke-linecap="butt"
         stroke-linejoin="miter"
         id="path144" />
      <path
         d="m 113,31.64 c -44.86326,0 -81.36,36.49674 -81.36,81.36 0,44.86326 36.49674,81.36 81.36,81.36 44.86326,0 81.36,-36.49674 81.36,-81.36 0,-44.86326 -36.49674,-81.36 -81.36,-81.36 z m 0,158.2 c -42.37048,0 -76.84,-34.46952 -76.84,-76.84 0,-42.37048 34.46952,-76.84 76.84,-76.84 42.37048,0 76.84,34.46952 76.84,76.84 0,42.37048 -34.46952,76.84 -76.84,76.84 z"
         fill="#1f212b"
         stroke="none"
         stroke-linecap="butt"
         stroke-linejoin="miter"
         id="path146" />
      <path
         d="m 160.33796,134.33214 8.69874,0.56048 3.43972,-12.83454 -8.77784,-4.34146 c 0.14464,-1.55488 0.2373,-3.12558 0.2373,-4.71662 0,-1.59104 -0.0949,-3.16174 -0.2373,-4.71662 l 8.77784,-4.34146 -3.43972,-12.83454 -9.79032,0.63054 c -1.32662,-2.87472 -2.87924,-5.62288 -4.69628,-8.17894 l 5.42626,-8.14052 -9.39482,-9.39482 -8.14052,5.42626 c -2.56058,-1.8193 -5.29518,-3.40582 -8.17894,-4.73018 l 0.62828,-9.75416 -12.83454,-3.43972 -4.33468,8.76654 c -1.55714,-0.14238 -3.1301,-0.226 -4.7234,-0.226 -1.5933,0 -3.16852,0.08362 -4.7234,0.226 l -4.33468,-8.76654 -12.83454,3.43972 0.62828,9.75416 c -2.8815,1.32662 -5.6161,2.91314 -8.17894,4.73018 l -8.14052,-5.42626 -9.39482,9.39482 5.42626,8.14052 c -1.8193,2.56058 -3.40582,5.29518 -4.73018,8.17894 l -9.75416,-0.62828 -3.43972,12.83454 8.76654,4.33468 c -0.14238,1.55714 -0.226,3.1301 -0.226,4.7234 0,1.5933 0.08362,3.16852 0.226,4.7234 l -8.76654,4.33468 3.43972,12.83454 8.71456,-0.56274 M 113,150.31712 c -20.60894,0 -37.31712,-16.70818 -37.31712,-37.31712 0,-20.60894 16.70818,-37.31712 37.31712,-37.31712 20.60894,0 37.31712,16.70818 37.31712,37.31712 0,20.60894 -16.70818,37.31712 -37.31712,37.31712 z"
         fill="none"
         stroke="#1f212b"
         stroke-linecap="butt"
         stroke-linejoin="round"
         id="path148" />
      <path
         d="m 174.77032,184.56968 -11.26836,-42.6462 -0.0136,-0.0136 C 161.68266,132.52414 153.43818,125.43 143.52582,125.43 c -6.01612,0 -11.40622,2.62838 -15.1307,6.78 H 97.6207 c -3.72448,-4.15162 -9.11458,-6.78 -15.1307,-6.78 -9.91236,0 -18.1591,7.09414 -19.96258,16.47992 l -0.01356,0.0136 -11.26836,42.6462 c -1.69274,6.78678 2.5425,13.63458 9.36996,15.1533 l 0.0452,0.0113 c 4.7686,1.05994 9.718,-0.77066 12.64922,-4.68046 L 96.05,166.11 h 33.91582 l 22.74012,28.94382 c 2.93122,3.90754 7.88062,5.73814 12.64922,4.68046 l 0.0452,-0.0113 c 6.82972,-1.51646 11.0627,-8.36426 9.36996,-15.1533 z"
         fill="#ffffff"
         stroke="none"
         stroke-linecap="butt"
         stroke-linejoin="miter"
         id="path150" />
      <path
         d="M 113,62.15 V 75.71"
         fill="none"
         stroke="#1f212b"
         stroke-linecap="butt"
         stroke-linejoin="round"
         id="path152" />
      <path
         d="m 89.27,84.75 h 9.04"
         fill="none"
         stroke="#1f212b"
         stroke-linecap="round"
         stroke-linejoin="round"
         id="path154" />
      <path
         d="m 102.83,84.75 h 9.04"
         fill="none"
         stroke="#1f212b"
         stroke-linecap="round"
         stroke-linejoin="round"
         id="path156" />
      <path
         d="m 116.39,84.75 h 9.04"
         fill="none"
         stroke="#1f212b"
         stroke-linecap="round"
         stroke-linejoin="round"
         id="path158" />
      <path
         d="m 89.27,91.53 h 13.56"
         fill="none"
         stroke="#1f212b"
         stroke-linecap="round"
         stroke-linejoin="round"
         id="path160" />
      <path
         d="m 107.35,91.53 h 6.78"
         fill="none"
         stroke="#1f212b"
         stroke-linecap="round"
         stroke-linejoin="round"
         id="path162" />
      <path
         d="m 118.65,91.53 h 13.56"
         fill="none"
         stroke="#1f212b"
         stroke-linecap="round"
         stroke-linejoin="round"
         id="path164" />
      <path
         d="m 91.53,98.31 h 13.56"
         fill="none"
         stroke="#1f212b"
         stroke-linecap="round"
         stroke-linejoin="round"
         id="path166" />
      <path
         d="m 109.61,98.31 h 6.78"
         fill="none"
         stroke="#1f212b"
         stroke-linecap="round"
         stroke-linejoin="round"
         id="path168" />
      <path
         d="m 105.09,105.09 h 6.78"
         fill="none"
         stroke="#1f212b"
         stroke-linecap="round"
         stroke-linejoin="round"
         id="path170" />
      <path
         d="m 111.87,111.87 h 6.78"
         fill="none"
         stroke="#1f212b"
         stroke-linecap="round"
         stroke-linejoin="round"
         id="path172" />
      <path
         d="m 120.91,98.31 h 13.56"
         fill="none"
         stroke="#1f212b"
         stroke-linecap="round"
         stroke-linejoin="round"
         id="path174" />
      <path
         d="m 116.39,105.09 h 22.6"
         fill="none"
         stroke="#1f212b"
         stroke-linecap="round"
         stroke-linejoin="round"
         id="path176" />
      <path
         d="m 123.17,111.87 h 15.82"
         fill="none"
         stroke="#1f212b"
         stroke-linecap="round"
         stroke-linejoin="round"
         id="path178" />
      <path
         d="m 91.53,105.09 h 9.04"
         fill="none"
         stroke="#1f212b"
         stroke-linecap="round"
         stroke-linejoin="round"
         id="path180" />
      <path
         d="m 96.05,111.87 h 11.3"
         fill="none"
         stroke="#1f212b"
         stroke-linecap="round"
         stroke-linejoin="round"
         id="path182" />
      <path
         d="m 123.17,118.65 h 11.3"
         fill="none"
         stroke="#1f212b"
         stroke-linecap="round"
         stroke-linejoin="round"
         id="path184" />
      <path
         d="m 138.99,118.65 h 10.4864"
         fill="none"
         stroke="#1f212b"
         stroke-linecap="round"
         stroke-linejoin="round"
         id="path186" />
      <path
         d="M 98.39814,118.65 H 118.65"
         fill="none"
         stroke="#1f212b"
         stroke-linecap="round"
         stroke-linejoin="round"
         id="path188" />
      <path
         d="m 98.31,125.43 h 6.78"
         fill="none"
         stroke="#1f212b"
         stroke-linecap="round"
         stroke-linejoin="round"
         id="path190" />
      <path
         d="m 109.61,125.43 h 6.78"
         fill="none"
         stroke="#1f212b"
         stroke-linecap="round"
         stroke-linejoin="round"
         id="path192" />
      <path
         d="m 120.91,125.43 h 6.78"
         fill="none"
         stroke="#1f212b"
         stroke-linecap="round"
         stroke-linejoin="round"
         id="path194" />
      <path
         d="m 59.40184,153.69808 -8.1586,30.87386 c -1.69274,6.78678 2.5425,13.63458 9.36996,15.1533 l 0.0452,0.0113 c 4.7686,1.05994 9.718,-0.77066 12.64922,-4.68046 l 19.32752,-24.60236"
         fill="none"
         stroke="#1f212b"
         stroke-linecap="round"
         stroke-linejoin="round"
         id="path196" />
      <path
         d="m 173.78044,180.82486 -10.27848,-38.90138 -0.0136,-0.0136 C 161.68266,132.52414 153.43818,125.43 143.52582,125.43 c -6.01612,0 -11.40622,2.62838 -15.1307,6.78 H 97.6207 c -3.72448,-4.15162 -9.11458,-6.78 -15.1307,-6.78 -9.91236,0 -18.1591,7.09414 -19.96258,16.47992 l -0.01356,0.0136 -1.31532,4.98104"
         fill="none"
         stroke="#1f212b"
         stroke-linecap="round"
         stroke-linejoin="round"
         id="path198" />
      <circle
         cx="36.5"
         cy="65.5"
         transform="scale(2.26)"
         r="4"
         fill="#3498db"
         stroke="none"
         stroke-linecap="butt"
         stroke-linejoin="miter"
         id="circle200" />
      <circle
         cx="44.5"
         cy="73.5"
         transform="scale(2.26)"
         r="4"
         fill="#3498db"
         stroke="none"
         stroke-linecap="butt"
         stroke-linejoin="miter"
         id="circle202" />
      <circle
         cx="55.5"
         cy="73.5"
         transform="scale(2.26)"
         r="4"
         fill="#3498db"
         stroke="none"
         stroke-linecap="butt"
         stroke-linejoin="miter"
         id="circle204" />
      <path
         d="m 174.91948,189.93266 c 0.28702,-1.48256 0.3051,-3.0397 0.0158,-4.60136"
         fill="none"
         stroke="#1f212b"
         stroke-linecap="round"
         stroke-linejoin="round"
         id="path206" />
      <path
         d="m 133.51628,170.63 19.1874,24.42382 c 2.93122,3.90754 7.88062,5.73814 12.64922,4.68046 l 0.0452,-0.0113 c 3.31542,-0.73676 6.01838,-2.73008 7.7292,-5.36298"
         fill="none"
         stroke="#1f212b"
         stroke-linecap="round"
         stroke-linejoin="round"
         id="path208" />
      <path
         d="m 109.61,166.11 h 6.78"
         fill="none"
         stroke="#1f212b"
         stroke-linecap="round"
         stroke-linejoin="round"
         id="path210" />
      <circle
         cx="36.5"
         cy="65.5"
         transform="scale(2.26)"
         r="4"
         fill="none"
         stroke="#1f212b"
         stroke-linecap="round"
         stroke-linejoin="round"
         id="circle212" />
      <circle
         cx="36.5"
         cy="65.5"
         transform="scale(2.26)"
         r="2"
         fill="#e67e22"
         stroke="none"
         stroke-linecap="butt"
         stroke-linejoin="miter"
         id="circle214" />
      <circle
         cx="44.5"
         cy="73.5"
         transform="scale(2.26)"
         r="2"
         fill="#e67e22"
         stroke="none"
         stroke-linecap="butt"
         stroke-linejoin="miter"
         id="circle216" />
      <circle
         cx="36.5"
         cy="65.5"
         transform="scale(2.26)"
         r="2"
         fill="none"
         stroke="#1f212b"
         stroke-linecap="round"
         stroke-linejoin="round"
         id="circle218" />
      <circle
         cx="44.5"
         cy="73.5"
         transform="scale(2.26)"
         r="4"
         fill="none"
         stroke="#1f212b"
         stroke-linecap="round"
         stroke-linejoin="round"
         id="circle220" />
      <circle
         cx="44.5"
         cy="73.5"
         transform="scale(2.26)"
         r="2"
         fill="none"
         stroke="#1f212b"
         stroke-linecap="round"
         stroke-linejoin="round"
         id="circle222" />
      <circle
         cx="55.5"
         cy="73.5"
         transform="scale(2.26)"
         r="4"
         fill="none"
         stroke="#1f212b"
         stroke-linecap="round"
         stroke-linejoin="round"
         id="circle224" />
      <circle
         cx="55.5"
         cy="73.5"
         transform="scale(2.26)"
         r="2"
         fill="#e67e22"
         stroke="none"
         stroke-linecap="butt"
         stroke-linejoin="miter"
         id="circle226" />
      <circle
         cx="55.5"
         cy="73.5"
         transform="scale(2.26)"
         r="2"
         fill="none"
         stroke="#1f212b"
         stroke-linecap="round"
         stroke-linejoin="round"
         id="circle228" />
      <circle
         cx="60"
         cy="65"
         transform="scale(2.26)"
         r="1.5"
         fill="#e67e22"
         stroke="none"
         stroke-linecap="butt"
         stroke-linejoin="miter"
         id="circle230" />
      <circle
         cx="64"
         cy="61"
         transform="scale(2.26)"
         r="1.5"
         fill="#e67e22"
         stroke="none"
         stroke-linecap="butt"
         stroke-linejoin="miter"
         id="circle232" />
      <circle
         cx="64"
         cy="69"
         transform="scale(2.26)"
         r="1.5"
         fill="#e67e22"
         stroke="none"
         stroke-linecap="butt"
         stroke-linejoin="miter"
         id="circle234" />
      <circle
         cx="68"
         cy="65"
         transform="scale(2.26)"
         r="1.5"
         fill="#e67e22"
         stroke="none"
         stroke-linecap="butt"
         stroke-linejoin="miter"
         id="circle236" />
      <circle
         cx="60"
         cy="65"
         transform="scale(2.26)"
         r="1.5"
         fill="none"
         stroke="#1f212b"
         stroke-linecap="round"
         stroke-linejoin="round"
         id="circle238" />
      <circle
         cx="64"
         cy="61"
         transform="scale(2.26)"
         r="1.5"
         fill="none"
         stroke="#1f212b"
         stroke-linecap="round"
         stroke-linejoin="round"
         id="circle240" />
      <circle
         cx="64"
         cy="69"
         transform="scale(2.26)"
         r="1.5"
         fill="none"
         stroke="#1f212b"
         stroke-linecap="round"
         stroke-linejoin="round"
         id="circle242" />
      <circle
         cx="68"
         cy="65"
         transform="scale(2.26)"
         r="1.5"
         fill="none"
         stroke="#1f212b"
         stroke-linecap="round"
         stroke-linejoin="round"
         id="circle244" />
      <path
         d="m 107.35,145.77 h -4.52 c -1.24752,0 -2.26,-1.01248 -2.26,-2.26 v 0 c 0,-1.24752 1.01248,-2.26 2.26,-2.26 h 4.52 c 1.24752,0 2.26,1.01248 2.26,2.26 v 0 c 0,1.24752 -1.01248,2.26 -2.26,2.26 z"
         fill="#3498db"
         stroke="none"
         stroke-linecap="butt"
         stroke-linejoin="miter"
         id="path246" />
      <path
         d="m 123.17,145.77 h -4.52 c -1.24752,0 -2.26,-1.01248 -2.26,-2.26 v 0 c 0,-1.24752 1.01248,-2.26 2.26,-2.26 h 4.52 c 1.24752,0 2.26,1.01248 2.26,2.26 v 0 c 0,1.24752 -1.01248,2.26 -2.26,2.26 z"
         fill="#3498db"
         stroke="none"
         stroke-linecap="butt"
         stroke-linejoin="miter"
         id="path248" />
      <path
         d="m 107.35,145.77 h -4.52 c -1.24752,0 -2.26,-1.01248 -2.26,-2.26 v 0 c 0,-1.24752 1.01248,-2.26 2.26,-2.26 h 4.52 c 1.24752,0 2.26,1.01248 2.26,2.26 v 0 c 0,1.24752 -1.01248,2.26 -2.26,2.26 z"
         fill="none"
         stroke="#1f212b"
         stroke-linecap="round"
         stroke-linejoin="round"
         id="path250" />
      <path
         d="m 123.17,145.77 h -4.52 c -1.24752,0 -2.26,-1.01248 -2.26,-2.26 v 0 c 0,-1.24752 1.01248,-2.26 2.26,-2.26 h 4.52 c 1.24752,0 2.26,1.01248 2.26,2.26 v 0 c 0,1.24752 -1.01248,2.26 -2.26,2.26 z"
         fill="none"
         stroke="#1f212b"
         stroke-linecap="round"
         stroke-linejoin="round"
         id="path252" />
    </g>
  </g>
</svg>
