<?xml version="1.0" encoding="UTF-8" standalone="no"?>
<svg
   xmlns:dc="http://purl.org/dc/elements/1.1/"
   xmlns:cc="http://creativecommons.org/ns#"
   xmlns:rdf="http://www.w3.org/1999/02/22-rdf-syntax-ns#"
   xmlns:svg="http://www.w3.org/2000/svg"
   xmlns="http://www.w3.org/2000/svg"
   xmlns:sodipodi="http://sodipodi.sourceforge.net/DTD/sodipodi-0.dtd"
   xmlns:inkscape="http://www.inkscape.org/namespaces/inkscape"
   version="1.1"
   id="svg2"
   width="500"
   height="516"
   viewBox="0 0 500 516"
   sodipodi:docname="calendar.svg"
   inkscape:version="1.0.1 (3bc2e813f5, 2020-09-07)">
  <metadata
     id="metadata8">
    <rdf:RDF>
      <cc:Work
         rdf:about="">
        <dc:format>image/svg+xml</dc:format>
        <dc:type
           rdf:resource="http://purl.org/dc/dcmitype/StillImage" />
        <dc:title></dc:title>
      </cc:Work>
    </rdf:RDF>
  </metadata>
  <defs
     id="defs6" />
  <sodipodi:namedview
     pagecolor="#ffffff"
     bordercolor="#666666"
     borderopacity="1"
     objecttolerance="10"
     gridtolerance="10"
     guidetolerance="10"
     inkscape:pageopacity="0"
     inkscape:pageshadow="2"
     inkscape:window-width="2828"
     inkscape:window-height="1648"
     id="namedview4"
     showgrid="false"
     inkscape:zoom="1.9534884"
     inkscape:cx="250"
     inkscape:cy="255.69643"
     inkscape:window-x="0"
     inkscape:window-y="0"
     inkscape:window-maximized="0"
     inkscape:current-layer="g10" />
  <g
     inkscape:groupmode="layer"
     inkscape:label="Image"
     id="g10">
    <path
       style="fill:#f2f2f2;stroke-width:1.33333"
       d="m 20.796186,506.46813 c -1.72935,-1.21134 -4.26618,-4.67292 -5.63738,-7.69242 -2.40132,-5.28789 -2.49418,-13.28362 -2.52238,-217.19949 -0.0322,-232.507627 -0.57784,-217.531818 8.1532,-223.758964 4.4007,-3.138663 5.09859,-3.205628 37.48418,-3.596718 l 33,-0.39851 0.0376,40.398512 c 0.0367,39.47249 0.10776,40.53604 3.10028,46.39851 3.51922,6.8943 12.013414,13.93518 19.229174,15.93918 7.20207,2.0002 39.88477,1.66338 45.86576,-0.47268 7.45125,-2.66114 15.19525,-9.4816 17.93492,-15.796 2.17476,-5.01241 2.51142,-10.35145 2.90094,-46.00384 l 0.44066,-40.333329 h 73.91202 73.91203 l 0.0327,37.666669 c 0.0181,21.01849 0.64092,40.30677 1.40893,43.63993 1.7846,7.74507 6.44349,13.72947 14.27032,18.33033 6.20596,3.6481 6.58437,3.6964 28.95481,3.6964 19.32256,0 23.31626,-0.35461 27.06968,-2.4036 6.71114,-3.66361 14.27858,-12.16322 16.02803,-18.00241 1.04725,-3.49564 1.56889,-18.15173 1.56889,-44.08201 V 53.952381 h 31.37616 c 34.92742,0 38.00306,0.579529 43.42563,8.182481 l 3.19821,4.484186 V 281.51159 496.40413 l -3.33336,3.61264 c -7.86232,8.52108 10.16832,7.89965 -240.66667,8.29469 -210.177684,0.33101 -228.245784,0.18692 -231.144294,-1.84333 z M 231.4363,478.93594 c 33.98718,-25.40405 59.95626,-49.38719 80.40581,-74.25689 16.99193,-20.66475 23.81073,-35.80403 26.75103,-59.39334 1.11762,-8.96645 6.30261,-19.38237 11.64212,-23.38741 3.52821,-2.64643 5.93989,-3.27925 12.49713,-3.27925 7.00431,0 9.87075,0.8665 20.77775,6.28102 6.95888,3.45458 19.9839,11.42856 28.94452,17.71998 18.10569,12.71236 24.14058,14.88173 33.02732,11.87238 8.79906,-2.97965 17.07236,-14.57256 23.03836,-32.28234 2.57124,-7.63263 2.75348,-11.21771 2.75348,-54.16874 0,-44.10945 -0.10574,-46.05173 -2.57902,-47.3754 -3.59774,-1.92545 -424.577554,-1.92545 -428.175314,0 -2.52308,1.35032 -2.57901,4.23728 -2.57901,133.11112 0,72.45198 0.4,132.13087 0.88889,132.61975 0.48889,0.48889 41.512,0.88889 91.162484,0.88889 h 90.27358 z M 109.21694,440.28497 c -0.36128,-0.94151 -0.49629,-17.0015 -0.3,-35.68887 l 0.35688,-33.97705 34.96905,-0.35542 34.96905,-0.35541 0.73974,3.02208 c 0.40685,1.66215 0.57077,17.72208 0.36428,35.68875 l -0.37546,32.66666 -35.03332,0.35554 c -27.54878,0.27958 -35.17367,-0.0107 -35.69022,-1.35628 z m 116.72354,-34.27938 v -35.94677 l 35,0.28011 35,0.28012 0.3933,8.95797 0.39329,8.95799 -10.36281,11.70868 c -5.69955,6.43978 -17.10419,18.45869 -25.34364,26.70869 l -14.98082,15 h -10.04966 -10.04966 z m -117.02213,-107.05321 0.35547,-35 h 35.33333 35.33333 l 0.35547,35 0.35548,35 h -36.04428 -36.04428 z m 117.02213,-0.35547 v -35.35548 l 35,0.35548 35,0.35547 0.35547,35 0.35548,35 h -35.35548 -35.35547 z m 170,1.34415 c -22.13161,-12.30812 -37.04102,-14.48952 -50.53126,-7.39324 l -7.46874,3.92879 v -16.59546 -16.59544 h 35.33334 35.33333 v 21.33334 c 0,11.73333 -0.45,21.3155 -1,21.29372 -0.55,-0.0217 -5.8,-2.70906 -11.66667,-5.97171 z m 63.82508,181.15955 c 8.15695,-3.88979 8.13611,-3.73531 8.56448,-63.48156 0.21426,-29.88334 0.007,-54.33334 -0.46176,-54.33334 -0.68216,0 -10.06188,7.7892 -20.06993,16.66667 -21.27996,18.876 -82.77739,61.25951 -115.1912,79.38879 -6.96667,3.8965 -13.56667,7.80504 -14.66667,8.68562 -1.1,0.88059 -6.95,4.16304 -13,7.29435 -6.05,3.13129 -11,6.20432 -11,6.82892 0,0.62461 36.27964,1.13565 80.62143,1.13565 71.94605,0 81.11451,-0.23513 85.20365,-2.1851 z M 115.0819,126.59718 c -1.93888,-1.05331 -4.18888,-3.81882 -5,-6.14558 -0.97225,-2.78901 -1.47404,-20.63159 -1.47268,-52.36485 0.002,-55.790961 0.0425,-56.013664 10.6646,-59.186464 7.4425,-2.223068 31.17641,-1.537484 36,1.039905 6.67793,3.568226 6.5792,2.69041 6.62426,58.893665 l 0.0424,52.881474 -4.1023,3.45186 c -3.96764,3.33856 -4.6788,3.4501 -21.66666,3.39847 -12.6566,-0.0385 -18.54938,-0.58849 -21.08962,-1.96848 z m 235.87962,-1.86737 -4.35437,-3.88924 -0.39403,-50.114685 c -0.43925,-55.867419 -0.22825,-57.445444 8.15424,-60.983826 6.14356,-2.593288 33.63323,-2.432005 38.90646,0.228265 7.08512,3.574342 7.49753,7.15337 7.06025,61.271037 -0.42245,52.283759 -0.49177,52.808949 -7.38447,55.949469 -1.72402,0.78552 -10.89689,1.42822 -20.38416,1.42822 -17.17292,0 -17.2689,-0.0173 -21.60392,-3.88924 z"
       id="path14" />
  </g>
</svg>
