<?xml version="1.0" encoding="UTF-8" standalone="no"?>
<svg
   xmlns:dc="http://purl.org/dc/elements/1.1/"
   xmlns:cc="http://creativecommons.org/ns#"
   xmlns:rdf="http://www.w3.org/1999/02/22-rdf-syntax-ns#"
   xmlns:svg="http://www.w3.org/2000/svg"
   xmlns="http://www.w3.org/2000/svg"
   version="1.1"
   id="svg2"
   width="320"
   height="320"
   viewBox="0 0 320 320">
  <metadata
     id="metadata8">
    <rdf:RDF>
      <cc:Work
         rdf:about="">
        <dc:format>image/svg+xml</dc:format>
        <dc:type
           rdf:resource="http://purl.org/dc/dcmitype/StillImage" />
        <dc:title></dc:title>
      </cc:Work>
    </rdf:RDF>
  </metadata>
  <defs
     id="defs6" />
  <g
     id="g10">
    <path
       style="fill:#ffffff;stroke-width:1.33333"
       d="M 141.08422,318.22086 C 79.38158,310.48994 27.01183,266.85119 8.3538005,207.61905 -4.8631095,165.66038 0.48236048,117.75279 22.56152,80.285716 45.34993,41.615065 80.64778,15.62254 124.95238,4.8874373 c 16.67659,-4.04077295 49.57228,-4.51101995 66.08101,-0.944633 50.40098,10.8881377 89.82572,41.4933537 111.99426,86.9405417 45.48896,93.255874 -9.4925,204.214274 -111.62491,225.270944 -12.92795,2.66536 -37.48868,3.67406 -50.31852,2.06657 z m 44.07281,-33.86173 c 17.47458,-3.70376 31.06759,-9.46856 45.85543,-19.44728 24.74464,-16.69752 42.58519,-41.4972 51.54335,-71.64904 2.67097,-8.99012 3.06324,-13.21303 3.06324,-32.9771 0,-19.65622 -0.40495,-24.06476 -3.04898,-33.19338 C 271.74783,89.728046 247.16413,60.938814 212.44415,44.970013 158.75683,20.277529 94.7921,36.542886 58.79781,84.040176 40.14422,108.65506 30.62934,143.76894 34.3438,174.28571 c 6.61734,54.3658 46.51487,98.4788 99.29601,109.78735 12.05061,2.58188 39.95434,2.73683 51.51722,0.28607 z m -47.91728,-38.09828 c -23.74364,-6.22082 -45.51966,-23.82723 -56.05899,-45.325 -7.36037,-15.01343 -9.93097,-25.76418 -9.87921,-41.3168 0.0773,-23.22864 7.72242,-42.7151 23.30442,-59.40016 35.5268,-38.041744 91.6761,-39.185265 128.45817,-2.616144 8.47853,8.429434 11.965,13.130804 16.3392,22.032824 3.05841,6.22425 5.93312,13.26681 6.38823,15.65014 l 0.82748,4.33334 H 225.97307 205.3271 l -5.18736,-6.94011 c -6.57048,-8.79056 -14.33416,-14.71054 -24.14428,-18.41056 -6.26695,-2.36367 -9.70589,-2.80186 -18.37641,-2.34152 -13.76154,0.73063 -23.0991,5.03391 -32.50647,14.98082 -10.11345,10.69349 -12.67846,17.27318 -12.75997,32.73159 -0.0616,11.68708 0.2746,13.3812 4.26635,21.49678 5.14325,10.4567 13.51587,18.64921 24.09989,23.58149 6.43773,3.00004 9.35753,3.52269 19.56686,3.50247 10.27687,-0.0204 13.05303,-0.53734 19.33334,-3.60023 9.75562,-4.7578 16.2808,-10.33721 21.48834,-18.37381 l 4.2941,-6.62692 h 21.0013 21.00131 l -1.3398,5 c -2.27276,8.48174 -10.02425,23.29124 -16.39457,31.32241 -11.60774,14.63407 -30.52587,26.64137 -48.73758,30.93364 -11.95226,2.817 -31.65308,2.54004 -43.6924,-0.61425 z"
       id="path14" />
  </g>
</svg>
